<svg width="749px" height="73px" viewBox="0 0 749 73" version="1.1" xmlns="http://www.w3.org/2000/svg" xmlns:xlink="http://www.w3.org/1999/xlink">
    <!-- Generator: Sketch 46.2 (44496) - http://www.bohemiancoding.com/sketch -->
    <desc>Created with Sketch.</desc>
    <defs></defs>
    <g id="Page-1" stroke="none" stroke-width="1" fill="none" fill-rule="evenodd">
        <g id="Главная-" transform="translate(-888.000000, -1871.000000)">
            <g id="Group-4" transform="translate(888.000000, 1871.000000)">
                <g id="Group-Copy-7" transform="translate(334.000000, 0.000000)" fill="#C00028">
                    <g id="Group">
                        <path d="M7,6.05236932 C7,5.22048981 7.1555733,4.43057142 7.4720845,3.68366321 C7.78430402,2.93937756 8.22151863,2.29160253 8.78319189,1.74296068 C9.34325577,1.19536786 10.0036376,0.767364271 10.7675562,0.459474437 C11.5304018,0.15368266 12.33831,0 13.1912809,0 C14.0421059,0 14.8489412,0.15368266 15.6128598,0.459474437 C16.3746325,0.767364271 17.0371601,1.19536786 17.5988334,1.74296068 C18.1583608,2.29160253 18.595039,2.93937756 18.9099408,3.68366321 C19.2226968,4.43057142 19.3809524,5.22048981 19.3809524,6.05236932 C19.3809524,6.88582238 19.2226968,7.67521625 18.9099408,8.42159995 C18.595039,9.16693463 18.1583608,9.81418514 17.5988334,10.3607289 C17.0371601,10.9109443 16.3746325,11.3373744 15.6128598,11.6442152 C14.8489412,11.9505315 14.0421059,12.1052632 13.1912809,12.1052632 C12.33831,12.1052632 11.5304018,11.9505315 10.7675562,11.6442152 C10.0036376,11.3373744 9.34325577,10.9109443 8.78319189,10.3607289 C8.22151863,9.81418514 7.78430402,9.16693463 7.4720845,8.42159995 C7.1555733,7.67521625 7,6.88582238 7,6.05236932" id="Fill-10"></path>
                        <polygon id="Fill-11" points="0 23.4736842 26 23.4736842 26 15 0 15"></polygon>
                        <path d="M7,47.0523693 C7,46.2204898 7.1555733,45.4305714 7.4720845,44.6836632 C7.78430402,43.9393776 8.22151863,43.2916025 8.78319189,42.7429607 C9.34325577,42.1953679 10.0036376,41.7673643 10.7675562,41.4594744 C11.5304018,41.1536827 12.33831,41 13.1912809,41 C14.0421059,41 14.8489412,41.1536827 15.6128598,41.4594744 C16.3746325,41.7673643 17.0371601,42.1953679 17.5988334,42.7429607 C18.1583608,43.2916025 18.595039,43.9393776 18.9099408,44.6836632 C19.2226968,45.4305714 19.3809524,46.2204898 19.3809524,47.0523693 C19.3809524,47.8858224 19.2226968,48.6752162 18.9099408,49.4216 C18.595039,50.1669346 18.1583608,50.8141851 17.5988334,51.3607289 C17.0371601,51.9109443 16.3746325,52.3373744 15.6128598,52.6442152 C14.8489412,52.9505315 14.0421059,53.1052632 13.1912809,53.1052632 C12.33831,53.1052632 11.5304018,52.9505315 10.7675562,52.6442152 C10.0036376,52.3373744 9.34325577,51.9109443 8.78319189,51.3607289 C8.22151863,50.8141851 7.78430402,50.1669346 7.4720845,49.4216 C7.1555733,48.6752162 7,47.8858224 7,47.0523693" id="Fill-10"></path>
                        <polygon id="Fill-11" points="0 64.4736842 26 64.4736842 26 56 0 56"></polygon>
                        <rect id="Rectangle-6-Copy-18" x="34" y="44" width="63" height="6" rx="1"></rect>
                        <rect id="Rectangle-6-Copy-20" x="34" y="3" width="76" height="6" rx="1"></rect>
                        <rect id="Rectangle-6-Copy-21" x="34" y="57" width="51" height="6" rx="1"></rect>
                        <rect id="Rectangle-6-Copy-23" x="34" y="16" width="39" height="6" rx="1"></rect>
                    </g>
                </g>
                <g id="Group-Copy-8" transform="translate(334.000000, 41.000000)"></g>
                <path d="M132,34 C175.558938,34 185.792204,59 221,59 C246,59 256,49.5405405 274,41.7702703 C286,36.5900901 297.666667,34 309,34" id="Line-7-Copy" stroke="#979797" stroke-linecap="square" stroke-dasharray="5,10"></path>
                <path d="M464,37 C493,37 499.349449,21 530,21 C560.650551,21 566.226233,37 593,37 C619.773767,37 620.290221,25.9048599 640,26.3333333" id="Line-7-Copy-3" stroke="#979797" stroke-linecap="square" stroke-dasharray="5,10"></path>
                <g id="Group-2" transform="translate(0.000000, 8.000000)" fill="#C00028">
                    <polygon id="-copy-5" points="75.8077803 19 79 22.0895522 60.9816934 40.2149254 59.208238 42 48 29.7791045 51.1212815 26.6208955 58.8535469 31.9761194"></polygon>
                    <polygon id="-copy-8" points="110.80778 19 114 22.0895522 95.9816934 40.2149254 94.208238 42 83 29.7791045 86.1212815 26.6208955 93.8535469 31.9761194"></polygon>
                    <polygon id="-copy-3" points="52.02746 0 58 5.7761194 24.2883295 39.6626866 20.9702517 43 0 20.1522388 5.83981693 14.2477612 20.3066362 24.2597015"></polygon>
                </g>
                <g id="Dialogs" transform="translate(660.000000, 2.000000)" fill-rule="nonzero">
                    <path d="M69.3484589,44.8461538 L76,44.8461538 C79.8659932,44.8461538 83,41.7121471 83,37.8461538 L83,24 C83,20.1340068 79.8659932,17 76,17 L55,17 C51.1340068,17 48,20.1340068 48,24 L48,38.3846154 C48,41.9532245 50.8929293,44.8461538 54.4615385,44.8461538 L57.4615385,44.8461538 L57.4615385,52.5001709 L69.3484589,44.8461538 Z M42,38.3846154 L42,24 C42,16.8202983 47.8202983,11 55,11 L76,11 C83.1797017,11 89,16.8202983 89,24 L89,37.8461538 C89,45.0258556 83.1797017,50.8461538 76,50.8461538 L71.1130796,50.8461538 L51.4615385,63.4998291 L51.4615385,50.4826679 C46.0283434,49.1398481 42,44.2326668 42,38.3846154 Z" id="Rectangle-4-Copy-7" fill="#C00028" transform="translate(65.500000, 37.249915) scale(-1, 1) translate(-65.500000, -37.249915) "></path>
                    <g id="Group-3">
                        <path d="M12,70.3674815 L12,51.8036224 C5.09909115,50.0274512 9.23705556e-14,43.76305 2.84217094e-14,36.3076923 L0,16 C0,7.163444 7.163444,0 16,0 L46,0 C54.836556,0 62,7.163444 62,16 L62,36.3076923 C62,45.1442483 54.836556,52.3076923 46,52.3076923 L39.9496737,52.3076923 L12,70.3674815 Z" id="Rectangle-4-Copy-8" fill="#FFFFFF"></path>
                        <path d="M16,10 C12.6862915,10 10,12.6862915 10,16 L10,36.3076923 C10,39.6214008 12.6862915,42.3076923 16,42.3076923 L22,42.3076923 L22,52 L37,42.3076923 L46,42.3076923 C49.3137085,42.3076923 52,39.6214008 52,36.3076923 L52,16 C52,12.6862915 49.3137085,10 46,10 L16,10 Z M16,63.0204889 L16,48.3076923 C9.372583,48.3076923 4,42.9351093 4,36.3076923 L4,16 C4,9.372583 9.372583,4 16,4 L46,4 C52.627417,4 58,9.372583 58,16 L58,36.3076923 C58,42.9351093 52.627417,48.3076923 46,48.3076923 L38.7698042,48.3076923 L16,63.0204889 Z" id="Rectangle-4-Copy-8" fill="#C00028"></path>
                    </g>
                </g>
            </g>
        </g>
    </g>
</svg>